<svg width="108" height="29" viewBox="0 0 108 29" fill="none" xmlns="http://www.w3.org/2000/svg">
<rect x="0.5" y="0.831055" width="106" height="27" stroke="white"/>
<path d="M8.02 18.3311V9.81105H14.596V18.3311H13.516V10.7711H9.1V18.3311H8.02ZM20.0893 18.3911C19.4893 18.3911 18.9453 18.2711 18.4573 18.0311C17.9693 17.7911 17.5453 17.4671 17.1853 17.0591C16.8333 16.6431 16.5613 16.1791 16.3693 15.6671C16.1773 15.1471 16.0813 14.6151 16.0813 14.0711C16.0813 13.5031 16.1813 12.9631 16.3813 12.4511C16.5893 11.9311 16.8733 11.4711 17.2333 11.0711C17.6013 10.6631 18.0293 10.3431 18.5173 10.1111C19.0053 9.87105 19.5373 9.75105 20.1133 9.75105C20.7133 9.75105 21.2573 9.87505 21.7453 10.1231C22.2333 10.3711 22.6533 10.7031 23.0053 11.1191C23.3573 11.5351 23.6293 11.9991 23.8213 12.5111C24.0133 13.0231 24.1093 13.5471 24.1093 14.0831C24.1093 14.6511 24.0093 15.1951 23.8093 15.7151C23.6093 16.2271 23.3253 16.6871 22.9573 17.0951C22.5973 17.4951 22.1733 17.8111 21.6853 18.0431C21.1973 18.2751 20.6653 18.3911 20.0893 18.3911ZM17.1733 14.0711C17.1733 14.5031 17.2413 14.9231 17.3773 15.3311C17.5213 15.7311 17.7213 16.0871 17.9773 16.3991C18.2333 16.7111 18.5413 16.9591 18.9013 17.1431C19.2613 17.3271 19.6613 17.4191 20.1013 17.4191C20.5573 17.4191 20.9653 17.3231 21.3253 17.1311C21.6853 16.9391 21.9893 16.6831 22.2373 16.3631C22.4933 16.0431 22.6853 15.6831 22.8133 15.2831C22.9493 14.8831 23.0173 14.4791 23.0173 14.0711C23.0173 13.6391 22.9453 13.2231 22.8013 12.8231C22.6653 12.4231 22.4653 12.0671 22.2013 11.7551C21.9453 11.4351 21.6373 11.1871 21.2773 11.0111C20.9253 10.8271 20.5333 10.7351 20.1013 10.7351C19.6453 10.7351 19.2373 10.8311 18.8773 11.0231C18.5173 11.2071 18.2093 11.4591 17.9533 11.7791C17.7053 12.0991 17.5133 12.4591 17.3773 12.8591C17.2413 13.2511 17.1733 13.6551 17.1733 14.0711ZM25.6098 18.3311V9.81105H26.6898V13.4951H27.8298L30.6378 9.81105H31.8858L28.7178 13.9391L32.1018 18.3311H30.7818L27.8538 14.4791H26.6898V18.3311H25.6098ZM39.2103 17.3711V18.3311H33.4263V9.81105H39.1023V10.7711H34.5063V13.5311H38.5023V14.4311H34.5063V17.3711H39.2103ZM48.0599 18.3311V11.8271L45.2519 16.8311H44.5919L41.7719 11.8271V18.3311H40.6919V9.81105H41.8319L44.9159 15.3431L48.0119 9.81105H49.1399V18.3311H48.0599ZM54.6362 18.3911C54.0362 18.3911 53.4922 18.2711 53.0042 18.0311C52.5162 17.7911 52.0922 17.4671 51.7322 17.0591C51.3802 16.6431 51.1082 16.1791 50.9162 15.6671C50.7242 15.1471 50.6282 14.6151 50.6282 14.0711C50.6282 13.5031 50.7282 12.9631 50.9282 12.4511C51.1362 11.9311 51.4202 11.4711 51.7802 11.0711C52.1482 10.6631 52.5762 10.3431 53.0642 10.1111C53.5522 9.87105 54.0842 9.75105 54.6602 9.75105C55.2602 9.75105 55.8042 9.87505 56.2922 10.1231C56.7802 10.3711 57.2002 10.7031 57.5522 11.1191C57.9042 11.5351 58.1762 11.9991 58.3682 12.5111C58.5602 13.0231 58.6562 13.5471 58.6562 14.0831C58.6562 14.6511 58.5562 15.1951 58.3562 15.7151C58.1562 16.2271 57.8722 16.6871 57.5042 17.0951C57.1442 17.4951 56.7202 17.8111 56.2322 18.0431C55.7442 18.2751 55.2122 18.3911 54.6362 18.3911ZM51.7202 14.0711C51.7202 14.5031 51.7882 14.9231 51.9242 15.3311C52.0682 15.7311 52.2682 16.0871 52.5242 16.3991C52.7802 16.7111 53.0882 16.9591 53.4482 17.1431C53.8082 17.3271 54.2082 17.4191 54.6482 17.4191C55.1042 17.4191 55.5122 17.3231 55.8722 17.1311C56.2322 16.9391 56.5362 16.6831 56.7842 16.3631C57.0402 16.0431 57.2322 15.6831 57.3602 15.2831C57.4962 14.8831 57.5642 14.4791 57.5642 14.0711C57.5642 13.6391 57.4922 13.2231 57.3482 12.8231C57.2122 12.4231 57.0122 12.0671 56.7482 11.7551C56.4922 11.4351 56.1842 11.1871 55.8242 11.0111C55.4722 10.8271 55.0802 10.7351 54.6482 10.7351C54.1922 10.7351 53.7842 10.8311 53.4242 11.0231C53.0642 11.2071 52.7562 11.4591 52.5002 11.7791C52.2522 12.0991 52.0602 12.4591 51.9242 12.8591C51.7882 13.2511 51.7202 13.6551 51.7202 14.0711ZM67.0087 9.81105V18.3311H65.9287V14.4551H61.2367V18.3311H60.1567V9.81105H61.2367V13.4951H65.9287V9.81105H67.0087ZM69.0513 18.3311V9.81105H70.1313V13.0391H72.1713C72.7953 13.0391 73.3153 13.1511 73.7313 13.3751C74.1473 13.5911 74.4593 13.8991 74.6673 14.2991C74.8833 14.6911 74.9913 15.1511 74.9913 15.6791C74.9913 16.1751 74.8873 16.6271 74.6793 17.0351C74.4713 17.4351 74.1633 17.7511 73.7553 17.9831C73.3473 18.2151 72.8433 18.3311 72.2433 18.3311H69.0513ZM70.1313 17.4311H72.0993C72.5233 17.4311 72.8673 17.3511 73.1313 17.1911C73.3953 17.0231 73.5873 16.8071 73.7073 16.5431C73.8273 16.2711 73.8873 15.9831 73.8873 15.6791C73.8873 15.3751 73.8313 15.0911 73.7193 14.8271C73.6153 14.5631 73.4313 14.3511 73.1673 14.1911C72.9033 14.0231 72.5433 13.9391 72.0873 13.9391H70.1313V17.4311ZM76.4073 18.3311V9.82305H77.4873V18.3311H76.4073ZM84.78 9.81105H85.692L89.172 18.3311H88.02L87.012 15.8351H83.436L82.44 18.3311H81.288L84.78 9.81105ZM86.772 14.9951L85.236 11.0591L83.652 14.9951H86.772ZM90.3091 18.3311V9.81105H93.8611C94.2371 9.81105 94.5811 9.89105 94.8931 10.0511C95.2051 10.2031 95.4771 10.4111 95.7091 10.6751C95.9411 10.9311 96.1211 11.2231 96.2491 11.5511C96.3771 11.8711 96.4411 12.1991 96.4411 12.5351C96.4411 12.9991 96.3371 13.4431 96.1291 13.8671C95.9211 14.2831 95.6291 14.6231 95.2531 14.8871C94.8771 15.1431 94.4371 15.2711 93.9331 15.2711H91.3891V18.3311H90.3091ZM91.3891 14.3111H93.8731C94.1691 14.3111 94.4251 14.2311 94.6411 14.0711C94.8651 13.9111 95.0371 13.6951 95.1571 13.4231C95.2851 13.1511 95.3491 12.8551 95.3491 12.5351C95.3491 12.1991 95.2771 11.8991 95.1331 11.6351C94.9891 11.3631 94.8011 11.1511 94.5691 10.9991C94.3371 10.8471 94.0811 10.7711 93.8011 10.7711H91.3891V14.3111ZM97.7856 18.3311V9.81105H98.8656V18.3311H97.7856Z" fill="white"/>
</svg>
